<svg width="1920" height="855" viewBox="0 0 1920 855" fill="none" xmlns="http://www.w3.org/2000/svg">
<g clip-path="url(#clip0)">
<rect width="1920" height="855" fill="white"/>
<path fill-rule="evenodd" clip-rule="evenodd" d="M1534.13 474.464C1532.83 489.405 1543.98 502.795 1558.93 501.639C1639.04 495.444 1705.23 432.057 1712.4 349.378C1712.4 349.378 1712.4 349.378 1712.4 349.378L1685.41 347.038C1670.5 345.746 1657.68 356.988 1652.9 371.166C1639.49 410.897 1604.82 440.101 1563.41 446.585C1548.65 448.896 1535.42 459.581 1534.13 474.464Z" fill="#DF1382"/>
<path fill-rule="evenodd" clip-rule="evenodd" d="M1691.31 535.82C1706.31 536.129 1718.43 548.643 1715.68 563.385C1702.59 633.634 1645.7 688.097 1574.92 698.093C1560.1 700.186 1548.14 687.575 1548.45 672.614L1549.01 645.524C1549.01 645.524 1549.01 645.524 1549.01 645.524C1602.04 646.617 1647.3 610.986 1660.47 561.952C1664.34 547.526 1676.38 535.512 1691.31 535.82Z" fill="#F5BE39"/>
<path fill-rule="evenodd" clip-rule="evenodd" d="M1411.38 528.126C1396.39 527.817 1383.76 539.821 1385.9 554.664C1396.08 625.392 1450.67 682.153 1520.99 695.058C1535.71 697.759 1548.18 685.652 1548.49 670.69C1548.79 655.729 1536.73 643.681 1522.27 639.839C1481.74 629.073 1450.32 596.404 1441.12 555.508C1437.85 540.934 1426.31 528.434 1411.38 528.126Z" fill="#317AA4"/>
<path fill-rule="evenodd" clip-rule="evenodd" d="M1691.35 533.898C1706.34 534.207 1718.97 522.203 1716.83 507.36C1705.38 427.827 1637.77 365.955 1554.8 364.245C1554.8 364.245 1554.8 364.245 1554.8 364.245L1554.24 391.334C1553.93 406.295 1566 418.343 1580.46 422.185C1620.99 432.95 1652.41 465.62 1661.61 506.516C1664.88 521.09 1676.42 533.59 1691.35 533.898Z" fill="#34B458"/>
<path fill-rule="evenodd" clip-rule="evenodd" d="M1411.38 528.181C1396.38 527.872 1384.26 515.359 1387.01 500.616C1400.1 430.368 1456.99 375.904 1527.77 365.908C1542.59 363.816 1554.55 376.427 1554.24 391.389L1553.68 418.478C1553.68 418.479 1553.68 418.479 1553.68 418.479C1500.65 417.386 1455.39 453.016 1442.22 502.05C1438.35 516.475 1426.31 528.489 1411.38 528.181Z" fill="#FDC43B"/>
<path fill-rule="evenodd" clip-rule="evenodd" d="M1532.21 474.3C1530.91 489.24 1517.63 500.511 1503.1 496.8C1433.87 479.112 1383.27 418.766 1377.95 347.474C1376.84 332.551 1390.21 321.447 1405.12 322.74L1432.11 325.08C1432.11 325.08 1432.11 325.081 1432.11 325.082C1427.53 377.932 1460.1 425.433 1508.17 441.801C1522.3 446.616 1533.5 459.419 1532.21 474.3Z" fill="#3EC564"/>
<path fill-rule="evenodd" clip-rule="evenodd" d="M1558.31 195.478C1559.61 180.537 1548.46 167.147 1533.51 168.303C1462.27 173.811 1402.03 224.549 1384.53 293.862C1380.86 308.371 1392.13 321.61 1407.03 322.903C1421.94 324.195 1434.76 312.952 1439.54 298.774C1452.95 259.043 1487.62 229.839 1529.03 223.355C1543.79 221.045 1557.02 210.36 1558.31 195.478Z" fill="#F43939"/>
<path fill-rule="evenodd" clip-rule="evenodd" d="M1558.22 195.46C1559.51 180.523 1572.79 169.252 1587.32 172.959C1656.37 190.577 1706.9 250.628 1712.47 321.659C1713.64 336.623 1700.24 347.786 1685.29 346.49C1670.42 345.201 1659.74 331.988 1657.41 317.243C1650.91 275.973 1621.83 241.42 1582.27 227.961C1568.13 223.148 1556.92 210.344 1558.22 195.46Z" fill="#317AA4"/>
</g>
<defs>
<clipPath id="clip0">
<rect width="1920" height="855" fill="white"/>
</clipPath>
</defs>
</svg>
