<svg width="592" height="207" viewBox="0 0 592 207" fill="none" xmlns="http://www.w3.org/2000/svg">
<rect x="193.153" y="13.2461" width="2.95372" height="10.8044" transform="rotate(18.5106 193.153 13.2461)" fill="#FCB712" fill-opacity="0.9"/>
<rect x="198.429" y="19.1526" width="2.95372" height="10.8044" transform="rotate(108.511 198.429 19.1526)" fill="#FCB712" fill-opacity="0.9"/>
<rect x="346.922" y="162.299" width="2.95372" height="10.8044" transform="rotate(-2.4894 346.922 162.299)" fill="#FCB712" fill-opacity="0.9"/>
<rect x="353.965" y="165.922" width="2.95372" height="10.8044" transform="rotate(87.5106 353.965 165.922)" fill="#FCB712" fill-opacity="0.9"/>
<rect x="408.66" y="1.02637" width="2.95372" height="10.8044" transform="rotate(-2.4894 408.66 1.02637)" fill="#FCB712" fill-opacity="0.9"/>
<rect x="415.703" y="4.64917" width="2.95372" height="10.8044" transform="rotate(87.5106 415.703 4.64917)" fill="#FCB712" fill-opacity="0.9"/>
<path d="M579.193 143.141L575.336 125.676L557 128.269" stroke="#279B48" stroke-width="7" stroke-linecap="round"/>
<path fill-rule="evenodd" clip-rule="evenodd" d="M0.227654 141C0.234841 141 0.242027 141 0.249214 141C36.3912 140.937 65.6405 111.593 65.5893 75.4539L44.3732 75.4908C44.404 99.9127 24.6369 119.741 0.212315 119.784C0.205128 119.784 0.197933 119.784 0.190746 119.784L0.227654 141Z" fill="#D29F2A"/>
<path fill-rule="evenodd" clip-rule="evenodd" d="M4.31915e-06 10.114C0.0071912 10.114 0.0143704 10.114 0.0215573 10.114C36.1635 10.0511 65.5147 39.2932 65.5893 75.4324L44.3732 75.4693C44.3189 51.0474 24.4831 31.2877 0.0584646 31.3302C0.0512777 31.3302 0.0440984 31.3302 0.0369116 31.3302L4.31915e-06 10.114Z" fill="#DF1382"/>
<path fill-rule="evenodd" clip-rule="evenodd" d="M4.31915e-06 141.114C0.0071912 141.114 0.0143704 141.114 0.0215573 141.114C36.1635 141.051 65.5147 170.293 65.5893 206.432L44.3732 206.469C44.3189 182.047 24.4831 162.288 0.0584646 162.33C0.0512777 162.33 0.0440984 162.33 0.0369116 162.33L4.31915e-06 141.114Z" fill="white"/>
</svg>
